<?xml version="1.0" encoding="UTF-8" standalone="no"?>
<!DOCTYPE svg PUBLIC "-//W3C//DTD SVG 1.1//EN"
 "http://www.w3.org/Graphics/SVG/1.1/DTD/svg11.dtd">
<!-- Generated by graphviz version 2.38.0 (20140413.2041)
 -->
<!-- Title: controllers_diagram Pages: 1 -->
<svg width="754pt" height="642pt"
 viewBox="0.00 0.00 754.32 642.34" xmlns="http://www.w3.org/2000/svg" xmlns:xlink="http://www.w3.org/1999/xlink">
<g id="graph0" class="graph" transform="scale(1 1) rotate(0) translate(268.005 341.5)">
<title>controllers_diagram</title>
<polygon fill="white" stroke="none" points="-268.005,300.837 -268.005,-341.5 486.312,-341.5 486.312,300.837 -268.005,300.837"/>
<!-- _diagram_info -->
<g id="node1" class="node"><title>_diagram_info</title>
<text text-anchor="start" x="-24.6877" y="-323.1" font-family="Times,serif" font-size="13.00">Controllers diagram</text>
<text text-anchor="start" x="-24.6877" y="-310.1" font-family="Times,serif" font-size="13.00">Date: Mar 17 2015 &#45; 21:21</text>
<text text-anchor="start" x="-24.6877" y="-297.1" font-family="Times,serif" font-size="13.00">Migration version: 20150313080547</text>
<text text-anchor="start" x="-24.6877" y="-284.1" font-family="Times,serif" font-size="13.00">Generated by RailRoady 1.3.0</text>
<text text-anchor="start" x="-24.6877" y="-271.1" font-family="Times,serif" font-size="13.00">http://railroady.prestonlee.com</text>
</g>
<!-- AccountActivationsController -->
<g id="node2" class="node"><title>AccountActivationsController</title>
<path fill="none" stroke="black" d="M-252.005,100.01C-252.005,100.01 -90.4873,100.01 -90.4873,100.01 -84.4873,100.01 -78.4873,94.0104 -78.4873,88.0104 -78.4873,88.0104 -78.4873,22.0104 -78.4873,22.0104 -78.4873,16.0104 -84.4873,10.0104 -90.4873,10.0104 -90.4873,10.0104 -252.005,10.0104 -252.005,10.0104 -258.005,10.0104 -264.005,16.0104 -264.005,22.0104 -264.005,22.0104 -264.005,88.0104 -264.005,88.0104 -264.005,94.0104 -258.005,100.01 -252.005,100.01"/>
<text text-anchor="middle" x="-171.246" y="25.2104" font-family="Times,serif" font-size="14.00">AccountActivationsController</text>
<polyline fill="none" stroke="black" points="-264.005,32.0104 -78.4873,32.0104 "/>
<text text-anchor="start" x="-256.005" y="47.2104" font-family="Times,serif" font-size="14.00">edit</text>
<polyline fill="none" stroke="black" points="-264.005,54.0104 -78.4873,54.0104 "/>
<polyline fill="none" stroke="black" points="-264.005,78.0104 -78.4873,78.0104 "/>
<text text-anchor="start" x="-256.005" y="93.2104" font-family="Times,serif" font-size="14.00">_layout</text>
</g>
<!-- ApplicationController -->
<g id="node3" class="node"><title>ApplicationController</title>
<path fill="none" stroke="black" d="M-60.0611,76.6274C-60.0611,76.6274 55.5805,76.6274 55.5805,76.6274 61.5805,76.6274 67.5805,70.6274 67.5805,64.6274 67.5805,64.6274 67.5805,-3.37258 67.5805,-3.37258 67.5805,-9.37258 61.5805,-15.3726 55.5805,-15.3726 55.5805,-15.3726 -60.0611,-15.3726 -60.0611,-15.3726 -66.0611,-15.3726 -72.0611,-9.37258 -72.0611,-3.37258 -72.0611,-3.37258 -72.0611,64.6274 -72.0611,64.6274 -72.0611,70.6274 -66.0611,76.6274 -60.0611,76.6274"/>
<text text-anchor="middle" x="-2.24028" y="-0.172582" font-family="Times,serif" font-size="14.00">ApplicationController</text>
<polyline fill="none" stroke="black" points="-72.0611,6.62742 67.5805,6.62742 "/>
<polyline fill="none" stroke="black" points="-72.0611,30.6274 67.5805,30.6274 "/>
<polyline fill="none" stroke="black" points="-72.0611,54.6274 67.5805,54.6274 "/>
<text text-anchor="start" x="-64.0611" y="69.8274" font-family="Times,serif" font-size="14.00">_layout</text>
</g>
<!-- ApplicationController&#45;&gt;AccountActivationsController -->
<g id="edge1" class="edge"><title>ApplicationController&#45;&gt;AccountActivationsController</title>
<path fill="none" stroke="black" d="M-72.4457,40.7562C-74.4409,41.044 -76.4471,41.3335 -78.4596,41.6238"/>
</g>
<!-- PasswordResetsController -->
<g id="node4" class="node"><title>PasswordResetsController</title>
<path fill="none" stroke="black" d="M56.2776,296.337C56.2776,296.337 196.043,296.337 196.043,296.337 202.043,296.337 208.043,290.337 208.043,284.337 208.043,284.337 208.043,106.337 208.043,106.337 208.043,100.337 202.043,94.3371 196.043,94.3371 196.043,94.3371 56.2776,94.3371 56.2776,94.3371 50.2776,94.3371 44.2776,100.337 44.2776,106.337 44.2776,106.337 44.2776,284.337 44.2776,284.337 44.2776,290.337 50.2776,296.337 56.2776,296.337"/>
<text text-anchor="middle" x="126.16" y="109.537" font-family="Times,serif" font-size="14.00">PasswordResetsController</text>
<polyline fill="none" stroke="black" points="44.2776,116.337 208.043,116.337 "/>
<text text-anchor="start" x="52.2776" y="131.537" font-family="Times,serif" font-size="14.00">create</text>
<text text-anchor="start" x="52.2776" y="145.537" font-family="Times,serif" font-size="14.00">edit</text>
<text text-anchor="start" x="52.2776" y="159.537" font-family="Times,serif" font-size="14.00">new</text>
<text text-anchor="start" x="52.2776" y="173.537" font-family="Times,serif" font-size="14.00">update</text>
<polyline fill="none" stroke="black" points="44.2776,180.337 208.043,180.337 "/>
<polyline fill="none" stroke="black" points="44.2776,204.337 208.043,204.337 "/>
<text text-anchor="start" x="52.2776" y="219.537" font-family="Times,serif" font-size="14.00">_layout</text>
<text text-anchor="start" x="52.2776" y="233.537" font-family="Times,serif" font-size="14.00">check_expiration</text>
<text text-anchor="start" x="52.2776" y="247.537" font-family="Times,serif" font-size="14.00">get_user</text>
<text text-anchor="start" x="52.2776" y="261.537" font-family="Times,serif" font-size="14.00">password_blank?</text>
<text text-anchor="start" x="52.2776" y="275.537" font-family="Times,serif" font-size="14.00">user_params</text>
<text text-anchor="start" x="52.2776" y="289.537" font-family="Times,serif" font-size="14.00">valid_user</text>
</g>
<!-- ApplicationController&#45;&gt;PasswordResetsController -->
<g id="edge2" class="edge"><title>ApplicationController&#45;&gt;PasswordResetsController</title>
<path fill="none" stroke="black" d="M33.8682,76.9466C38.1703,82.4653 42.6821,88.2529 47.3009,94.1778"/>
</g>
<!-- SessionsController -->
<g id="node5" class="node"><title>SessionsController</title>
<path fill="none" stroke="black" d="M59.123,-89.5003C59.123,-89.5003 156.902,-89.5003 156.902,-89.5003 162.902,-89.5003 168.902,-95.5003 168.902,-101.5 168.902,-101.5 168.902,-195.5 168.902,-195.5 168.902,-201.5 162.902,-207.5 156.902,-207.5 156.902,-207.5 59.123,-207.5 59.123,-207.5 53.123,-207.5 47.123,-201.5 47.123,-195.5 47.123,-195.5 47.123,-101.5 47.123,-101.5 47.123,-95.5003 53.123,-89.5003 59.123,-89.5003"/>
<text text-anchor="middle" x="108.013" y="-192.3" font-family="Times,serif" font-size="14.00">SessionsController</text>
<polyline fill="none" stroke="black" points="47.123,-185.5 168.902,-185.5 "/>
<text text-anchor="start" x="55.123" y="-170.3" font-family="Times,serif" font-size="14.00">create</text>
<text text-anchor="start" x="55.123" y="-156.3" font-family="Times,serif" font-size="14.00">destroy</text>
<text text-anchor="start" x="55.123" y="-142.3" font-family="Times,serif" font-size="14.00">new</text>
<polyline fill="none" stroke="black" points="47.123,-135.5 168.902,-135.5 "/>
<polyline fill="none" stroke="black" points="47.123,-111.5 168.902,-111.5 "/>
<text text-anchor="start" x="55.123" y="-96.3003" font-family="Times,serif" font-size="14.00">_layout</text>
</g>
<!-- ApplicationController&#45;&gt;SessionsController -->
<g id="edge3" class="edge"><title>ApplicationController&#45;&gt;SessionsController</title>
<path fill="none" stroke="black" d="M26.1526,-15.5024C39.9978,-37.9968 56.8116,-65.3141 71.5906,-89.3255"/>
</g>
<!-- StaticPagesController -->
<g id="node6" class="node"><title>StaticPagesController</title>
<path fill="none" stroke="black" d="M107.781,77.9522C107.781,77.9522 221.871,77.9522 221.871,77.9522 227.871,77.9522 233.871,71.9522 233.871,65.9522 233.871,65.9522 233.871,-42.0478 233.871,-42.0478 233.871,-48.0478 227.871,-54.0478 221.871,-54.0478 221.871,-54.0478 107.781,-54.0478 107.781,-54.0478 101.781,-54.0478 95.7808,-48.0478 95.7808,-42.0478 95.7808,-42.0478 95.7808,65.9522 95.7808,65.9522 95.7808,71.9522 101.781,77.9522 107.781,77.9522"/>
<text text-anchor="middle" x="164.826" y="-38.8478" font-family="Times,serif" font-size="14.00">StaticPagesController</text>
<polyline fill="none" stroke="black" points="95.7808,-32.0478 233.871,-32.0478 "/>
<text text-anchor="start" x="103.781" y="-16.8478" font-family="Times,serif" font-size="14.00">about</text>
<text text-anchor="start" x="103.781" y="-2.84784" font-family="Times,serif" font-size="14.00">contact</text>
<text text-anchor="start" x="103.781" y="11.1522" font-family="Times,serif" font-size="14.00">help</text>
<text text-anchor="start" x="103.781" y="25.1522" font-family="Times,serif" font-size="14.00">home</text>
<polyline fill="none" stroke="black" points="95.7808,31.9522 233.871,31.9522 "/>
<polyline fill="none" stroke="black" points="95.7808,55.9522 233.871,55.9522 "/>
<text text-anchor="start" x="103.781" y="71.1522" font-family="Times,serif" font-size="14.00">_layout</text>
</g>
<!-- ApplicationController&#45;&gt;StaticPagesController -->
<g id="edge4" class="edge"><title>ApplicationController&#45;&gt;StaticPagesController</title>
<path fill="none" stroke="black" d="M67.6427,22.8156C76.9419,21.7761 86.473,20.7107 95.7582,19.6728"/>
</g>
<!-- UsersController -->
<g id="node7" class="node"><title>UsersController</title>
<path fill="none" stroke="black" d="M-172.028,-18.9127C-172.028,-18.9127 -90.6005,-18.9127 -90.6005,-18.9127 -84.6005,-18.9127 -78.6005,-24.9127 -78.6005,-30.9127 -78.6005,-30.9127 -78.6005,-236.913 -78.6005,-236.913 -78.6005,-242.913 -84.6005,-248.913 -90.6005,-248.913 -90.6005,-248.913 -172.028,-248.913 -172.028,-248.913 -178.028,-248.913 -184.028,-242.913 -184.028,-236.913 -184.028,-236.913 -184.028,-30.9127 -184.028,-30.9127 -184.028,-24.9127 -178.028,-18.9127 -172.028,-18.9127"/>
<text text-anchor="middle" x="-131.314" y="-233.713" font-family="Times,serif" font-size="14.00">UsersController</text>
<polyline fill="none" stroke="black" points="-184.028,-226.913 -78.6005,-226.913 "/>
<text text-anchor="start" x="-176.028" y="-211.713" font-family="Times,serif" font-size="14.00">create</text>
<text text-anchor="start" x="-176.028" y="-197.713" font-family="Times,serif" font-size="14.00">destroy</text>
<text text-anchor="start" x="-176.028" y="-183.713" font-family="Times,serif" font-size="14.00">edit</text>
<text text-anchor="start" x="-176.028" y="-169.713" font-family="Times,serif" font-size="14.00">index</text>
<text text-anchor="start" x="-176.028" y="-155.713" font-family="Times,serif" font-size="14.00">new</text>
<text text-anchor="start" x="-176.028" y="-141.713" font-family="Times,serif" font-size="14.00">show</text>
<text text-anchor="start" x="-176.028" y="-127.713" font-family="Times,serif" font-size="14.00">update</text>
<polyline fill="none" stroke="black" points="-184.028,-120.913 -78.6005,-120.913 "/>
<polyline fill="none" stroke="black" points="-184.028,-96.9127 -78.6005,-96.9127 "/>
<text text-anchor="start" x="-176.028" y="-81.7127" font-family="Times,serif" font-size="14.00">_layout</text>
<text text-anchor="start" x="-176.028" y="-67.7127" font-family="Times,serif" font-size="14.00">admin_user</text>
<text text-anchor="start" x="-176.028" y="-53.7127" font-family="Times,serif" font-size="14.00">correct_user</text>
<text text-anchor="start" x="-176.028" y="-39.7127" font-family="Times,serif" font-size="14.00">logged_in_user</text>
<text text-anchor="start" x="-176.028" y="-25.7127" font-family="Times,serif" font-size="14.00">user_params</text>
</g>
<!-- ApplicationController&#45;&gt;UsersController -->
<g id="edge5" class="edge"><title>ApplicationController&#45;&gt;UsersController</title>
<path fill="none" stroke="black" d="M-38.5381,-15.644C-50.9158,-31.4227 -65.0197,-49.4021 -78.4295,-66.4965"/>
</g>
<!-- VendorsController -->
<g id="node8" class="node"><title>VendorsController</title>
<path fill="none" stroke="black" d="M-158.327,276.156C-158.327,276.156 -62.8994,276.156 -62.8994,276.156 -56.8994,276.156 -50.8994,270.156 -50.8994,264.156 -50.8994,264.156 -50.8994,156.156 -50.8994,156.156 -50.8994,150.156 -56.8994,144.156 -62.8994,144.156 -62.8994,144.156 -158.327,144.156 -158.327,144.156 -164.327,144.156 -170.327,150.156 -170.327,156.156 -170.327,156.156 -170.327,264.156 -170.327,264.156 -170.327,270.156 -164.327,276.156 -158.327,276.156"/>
<text text-anchor="middle" x="-110.613" y="159.356" font-family="Times,serif" font-size="14.00">VendorsController</text>
<polyline fill="none" stroke="black" points="-170.327,166.156 -50.8994,166.156 "/>
<text text-anchor="start" x="-162.327" y="181.356" font-family="Times,serif" font-size="14.00">display</text>
<text text-anchor="start" x="-162.327" y="195.356" font-family="Times,serif" font-size="14.00">import</text>
<text text-anchor="start" x="-162.327" y="209.356" font-family="Times,serif" font-size="14.00">index</text>
<text text-anchor="start" x="-162.327" y="223.356" font-family="Times,serif" font-size="14.00">show</text>
<polyline fill="none" stroke="black" points="-170.327,230.156 -50.8994,230.156 "/>
<polyline fill="none" stroke="black" points="-170.327,254.156 -50.8994,254.156 "/>
<text text-anchor="start" x="-162.327" y="269.356" font-family="Times,serif" font-size="14.00">_layout</text>
</g>
<!-- ApplicationController&#45;&gt;VendorsController -->
<g id="edge6" class="edge"><title>ApplicationController&#45;&gt;VendorsController</title>
<path fill="none" stroke="black" d="M-30.149,76.8605C-42.5039,97.3274 -57.2636,121.778 -70.7485,144.117"/>
</g>
<!-- WebConsole::ApplicationController -->
<g id="node9" class="node"><title>WebConsole::ApplicationController</title>
<path fill="none" stroke="black" d="M275.688,263C275.688,263 470.312,263 470.312,263 476.312,263 482.312,257 482.312,251 482.312,251 482.312,169 482.312,169 482.312,163 476.312,157 470.312,157 470.312,157 275.688,157 275.688,157 269.688,157 263.688,163 263.688,169 263.688,169 263.688,251 263.688,251 263.688,257 269.688,263 275.688,263"/>
<text text-anchor="middle" x="373" y="172.2" font-family="Times,serif" font-size="14.00">WebConsole::ApplicationController</text>
<polyline fill="none" stroke="black" points="263.688,179 482.312,179 "/>
<polyline fill="none" stroke="black" points="263.688,203 482.312,203 "/>
<polyline fill="none" stroke="black" points="263.688,227 482.312,227 "/>
<text text-anchor="start" x="271.688" y="242.2" font-family="Times,serif" font-size="14.00">_layout</text>
<text text-anchor="start" x="271.688" y="256.2" font-family="Times,serif" font-size="14.00">prevent_unauthorized_requests!</text>
</g>
<!-- WebConsole::ConsoleSessionsController -->
<g id="node10" class="node"><title>WebConsole::ConsoleSessionsController</title>
<path fill="none" stroke="black" d="M242.674,-100C242.674,-100 465.326,-100 465.326,-100 471.326,-100 477.326,-106 477.326,-112 477.326,-112 477.326,-234 477.326,-234 477.326,-240 471.326,-246 465.326,-246 465.326,-246 242.674,-246 242.674,-246 236.674,-246 230.674,-240 230.674,-234 230.674,-234 230.674,-112 230.674,-112 230.674,-106 236.674,-100 242.674,-100"/>
<text text-anchor="middle" x="354" y="-230.8" font-family="Times,serif" font-size="14.00">WebConsole::ConsoleSessionsController</text>
<polyline fill="none" stroke="black" points="230.674,-224 477.326,-224 "/>
<text text-anchor="start" x="238.674" y="-208.8" font-family="Times,serif" font-size="14.00">configuration</text>
<text text-anchor="start" x="238.674" y="-194.8" font-family="Times,serif" font-size="14.00">index</text>
<text text-anchor="start" x="238.674" y="-180.8" font-family="Times,serif" font-size="14.00">input</text>
<text text-anchor="start" x="238.674" y="-166.8" font-family="Times,serif" font-size="14.00">pending_output</text>
<polyline fill="none" stroke="black" points="230.674,-160 477.326,-160 "/>
<polyline fill="none" stroke="black" points="230.674,-136 477.326,-136 "/>
<text text-anchor="start" x="238.674" y="-120.8" font-family="Times,serif" font-size="14.00">_layout</text>
<text text-anchor="start" x="238.674" y="-106.8" font-family="Times,serif" font-size="14.00">console_session_params</text>
</g>
</g>
</svg>
