<?xml version="1.0" encoding="UTF-8" standalone="no"?>
<!DOCTYPE svg PUBLIC "-//W3C//DTD SVG 1.1//EN"
 "http://www.w3.org/Graphics/SVG/1.1/DTD/svg11.dtd">
<!-- Generated by graphviz version 2.38.0 (20140413.2041)
 -->
<!-- Title: controllers_diagram Pages: 1 -->
<svg width="756pt" height="629pt"
 viewBox="0.00 0.00 755.74 629.36" xmlns="http://www.w3.org/2000/svg" xmlns:xlink="http://www.w3.org/1999/xlink">
<g id="graph0" class="graph" transform="scale(1 1) rotate(0) translate(274.049 309.947)">
<title>controllers_diagram</title>
<polygon fill="white" stroke="none" points="-274.049,319.41 -274.049,-309.947 481.688,-309.947 481.688,319.41 -274.049,319.41"/>
<!-- _diagram_info -->
<g id="node1" class="node"><title>_diagram_info</title>
<text text-anchor="start" x="278.312" y="210.9" font-family="Times,serif" font-size="13.00">Controllers diagram</text>
<text text-anchor="start" x="278.312" y="223.9" font-family="Times,serif" font-size="13.00">Date: Mar 18 2015 &#45; 16:07</text>
<text text-anchor="start" x="278.312" y="236.9" font-family="Times,serif" font-size="13.00">Migration version: 20150313080547</text>
<text text-anchor="start" x="278.312" y="249.9" font-family="Times,serif" font-size="13.00">Generated by RailRoady 1.3.0</text>
<text text-anchor="start" x="278.312" y="262.9" font-family="Times,serif" font-size="13.00">http://railroady.prestonlee.com</text>
</g>
<!-- AccountActivationsController -->
<g id="node2" class="node"><title>AccountActivationsController</title>
<path fill="none" stroke="black" d="M-258.049,51.4859C-258.049,51.4859 -96.5318,51.4859 -96.5318,51.4859 -90.5318,51.4859 -84.5318,45.4859 -84.5318,39.4859 -84.5318,39.4859 -84.5318,-26.5141 -84.5318,-26.5141 -84.5318,-32.5141 -90.5318,-38.5141 -96.5318,-38.5141 -96.5318,-38.5141 -258.049,-38.5141 -258.049,-38.5141 -264.049,-38.5141 -270.049,-32.5141 -270.049,-26.5141 -270.049,-26.5141 -270.049,39.4859 -270.049,39.4859 -270.049,45.4859 -264.049,51.4859 -258.049,51.4859"/>
<text text-anchor="middle" x="-177.291" y="-23.3141" font-family="Times,serif" font-size="14.00">AccountActivationsController</text>
<polyline fill="none" stroke="black" points="-270.049,-16.5141 -84.5318,-16.5141 "/>
<text text-anchor="start" x="-262.049" y="-1.31412" font-family="Times,serif" font-size="14.00">edit</text>
<polyline fill="none" stroke="black" points="-270.049,5.48588 -84.5318,5.48588 "/>
<polyline fill="none" stroke="black" points="-270.049,29.4859 -84.5318,29.4859 "/>
<text text-anchor="start" x="-262.049" y="44.6859" font-family="Times,serif" font-size="14.00">_layout</text>
</g>
<!-- ApplicationController -->
<g id="node3" class="node"><title>ApplicationController</title>
<path fill="none" stroke="black" d="M-60.7851,52.0988C-60.7851,52.0988 54.8565,52.0988 54.8565,52.0988 60.8565,52.0988 66.8565,46.0988 66.8565,40.0988 66.8565,40.0988 66.8565,-27.9012 66.8565,-27.9012 66.8565,-33.9012 60.8565,-39.9012 54.8565,-39.9012 54.8565,-39.9012 -60.7851,-39.9012 -60.7851,-39.9012 -66.7851,-39.9012 -72.7851,-33.9012 -72.7851,-27.9012 -72.7851,-27.9012 -72.7851,40.0988 -72.7851,40.0988 -72.7851,46.0988 -66.7851,52.0988 -60.7851,52.0988"/>
<text text-anchor="middle" x="-2.96425" y="-24.7012" font-family="Times,serif" font-size="14.00">ApplicationController</text>
<polyline fill="none" stroke="black" points="-72.7851,-17.9012 66.8565,-17.9012 "/>
<polyline fill="none" stroke="black" points="-72.7851,6.0988 66.8565,6.0988 "/>
<polyline fill="none" stroke="black" points="-72.7851,30.0988 66.8565,30.0988 "/>
<text text-anchor="start" x="-64.7851" y="45.2988" font-family="Times,serif" font-size="14.00">_layout</text>
</g>
<!-- ApplicationController&#45;&gt;AccountActivationsController -->
<g id="edge1" class="edge"><title>ApplicationController&#45;&gt;AccountActivationsController</title>
<path fill="none" stroke="black" d="M-72.865,6.25401C-76.654,6.26242 -80.4883,6.27094 -84.3377,6.27948"/>
</g>
<!-- CommentsController -->
<g id="node4" class="node"><title>CommentsController</title>
<path fill="none" stroke="black" d="M60.849,253.698C60.849,253.698 171.063,253.698 171.063,253.698 177.063,253.698 183.063,247.698 183.063,241.698 183.063,241.698 183.063,173.698 183.063,173.698 183.063,167.698 177.063,161.698 171.063,161.698 171.063,161.698 60.849,161.698 60.849,161.698 54.849,161.698 48.849,167.698 48.849,173.698 48.849,173.698 48.849,241.698 48.849,241.698 48.849,247.698 54.849,253.698 60.849,253.698"/>
<text text-anchor="middle" x="115.956" y="176.898" font-family="Times,serif" font-size="14.00">CommentsController</text>
<polyline fill="none" stroke="black" points="48.849,183.698 183.063,183.698 "/>
<polyline fill="none" stroke="black" points="48.849,207.698 183.063,207.698 "/>
<polyline fill="none" stroke="black" points="48.849,231.698 183.063,231.698 "/>
<text text-anchor="start" x="56.849" y="246.898" font-family="Times,serif" font-size="14.00">_layout</text>
</g>
<!-- ApplicationController&#45;&gt;CommentsController -->
<g id="edge2" class="edge"><title>ApplicationController&#45;&gt;CommentsController</title>
<path fill="none" stroke="black" d="M24.3184,52.3497C43.656,85.1316 69.4912,128.929 88.8002,161.662"/>
</g>
<!-- PasswordResetsController -->
<g id="node5" class="node"><title>PasswordResetsController</title>
<path fill="none" stroke="black" d="M-65.2475,-103.447C-65.2475,-103.447 74.5182,-103.447 74.5182,-103.447 80.5182,-103.447 86.5182,-109.447 86.5182,-115.447 86.5182,-115.447 86.5182,-293.447 86.5182,-293.447 86.5182,-299.447 80.5182,-305.447 74.5182,-305.447 74.5182,-305.447 -65.2475,-305.447 -65.2475,-305.447 -71.2475,-305.447 -77.2475,-299.447 -77.2475,-293.447 -77.2475,-293.447 -77.2475,-115.447 -77.2475,-115.447 -77.2475,-109.447 -71.2475,-103.447 -65.2475,-103.447"/>
<text text-anchor="middle" x="4.63536" y="-290.247" font-family="Times,serif" font-size="14.00">PasswordResetsController</text>
<polyline fill="none" stroke="black" points="-77.2475,-283.447 86.5182,-283.447 "/>
<text text-anchor="start" x="-69.2475" y="-268.247" font-family="Times,serif" font-size="14.00">create</text>
<text text-anchor="start" x="-69.2475" y="-254.247" font-family="Times,serif" font-size="14.00">edit</text>
<text text-anchor="start" x="-69.2475" y="-240.247" font-family="Times,serif" font-size="14.00">new</text>
<text text-anchor="start" x="-69.2475" y="-226.247" font-family="Times,serif" font-size="14.00">update</text>
<polyline fill="none" stroke="black" points="-77.2475,-219.447 86.5182,-219.447 "/>
<polyline fill="none" stroke="black" points="-77.2475,-195.447 86.5182,-195.447 "/>
<text text-anchor="start" x="-69.2475" y="-180.247" font-family="Times,serif" font-size="14.00">_layout</text>
<text text-anchor="start" x="-69.2475" y="-166.247" font-family="Times,serif" font-size="14.00">check_expiration</text>
<text text-anchor="start" x="-69.2475" y="-152.247" font-family="Times,serif" font-size="14.00">get_user</text>
<text text-anchor="start" x="-69.2475" y="-138.247" font-family="Times,serif" font-size="14.00">password_blank?</text>
<text text-anchor="start" x="-69.2475" y="-124.247" font-family="Times,serif" font-size="14.00">user_params</text>
<text text-anchor="start" x="-69.2475" y="-110.247" font-family="Times,serif" font-size="14.00">valid_user</text>
</g>
<!-- ApplicationController&#45;&gt;PasswordResetsController -->
<g id="edge3" class="edge"><title>ApplicationController&#45;&gt;PasswordResetsController</title>
<path fill="none" stroke="black" d="M-1.29648,-40.1064C-0.623616,-58.7481 0.18113,-81.0434 0.977548,-103.108"/>
</g>
<!-- SessionsController -->
<g id="node6" class="node"><title>SessionsController</title>
<path fill="none" stroke="black" d="M118.35,-125.885C118.35,-125.885 216.129,-125.885 216.129,-125.885 222.129,-125.885 228.129,-131.885 228.129,-137.885 228.129,-137.885 228.129,-231.885 228.129,-231.885 228.129,-237.885 222.129,-243.885 216.129,-243.885 216.129,-243.885 118.35,-243.885 118.35,-243.885 112.35,-243.885 106.35,-237.885 106.35,-231.885 106.35,-231.885 106.35,-137.885 106.35,-137.885 106.35,-131.885 112.35,-125.885 118.35,-125.885"/>
<text text-anchor="middle" x="167.24" y="-228.685" font-family="Times,serif" font-size="14.00">SessionsController</text>
<polyline fill="none" stroke="black" points="106.35,-221.885 228.129,-221.885 "/>
<text text-anchor="start" x="114.35" y="-206.685" font-family="Times,serif" font-size="14.00">create</text>
<text text-anchor="start" x="114.35" y="-192.685" font-family="Times,serif" font-size="14.00">destroy</text>
<text text-anchor="start" x="114.35" y="-178.685" font-family="Times,serif" font-size="14.00">new</text>
<polyline fill="none" stroke="black" points="106.35,-171.885 228.129,-171.885 "/>
<polyline fill="none" stroke="black" points="106.35,-147.885 228.129,-147.885 "/>
<text text-anchor="start" x="114.35" y="-132.685" font-family="Times,serif" font-size="14.00">_layout</text>
</g>
<!-- ApplicationController&#45;&gt;SessionsController -->
<g id="edge4" class="edge"><title>ApplicationController&#45;&gt;SessionsController</title>
<path fill="none" stroke="black" d="M38.2374,-40.1331C61.1608,-65.8552 89.9362,-98.1438 114.49,-125.695"/>
</g>
<!-- StaticPagesController -->
<g id="node7" class="node"><title>StaticPagesController</title>
<path fill="none" stroke="black" d="M-226.086,-130.526C-226.086,-130.526 -111.996,-130.526 -111.996,-130.526 -105.996,-130.526 -99.9959,-136.526 -99.9959,-142.526 -99.9959,-142.526 -99.9959,-250.526 -99.9959,-250.526 -99.9959,-256.526 -105.996,-262.526 -111.996,-262.526 -111.996,-262.526 -226.086,-262.526 -226.086,-262.526 -232.086,-262.526 -238.086,-256.526 -238.086,-250.526 -238.086,-250.526 -238.086,-142.526 -238.086,-142.526 -238.086,-136.526 -232.086,-130.526 -226.086,-130.526"/>
<text text-anchor="middle" x="-169.041" y="-247.326" font-family="Times,serif" font-size="14.00">StaticPagesController</text>
<polyline fill="none" stroke="black" points="-238.086,-240.526 -99.9959,-240.526 "/>
<text text-anchor="start" x="-230.086" y="-225.326" font-family="Times,serif" font-size="14.00">about</text>
<text text-anchor="start" x="-230.086" y="-211.326" font-family="Times,serif" font-size="14.00">contact</text>
<text text-anchor="start" x="-230.086" y="-197.326" font-family="Times,serif" font-size="14.00">help</text>
<text text-anchor="start" x="-230.086" y="-183.326" font-family="Times,serif" font-size="14.00">home</text>
<polyline fill="none" stroke="black" points="-238.086,-176.526 -99.9959,-176.526 "/>
<polyline fill="none" stroke="black" points="-238.086,-152.526 -99.9959,-152.526 "/>
<text text-anchor="start" x="-230.086" y="-137.326" font-family="Times,serif" font-size="14.00">_layout</text>
</g>
<!-- ApplicationController&#45;&gt;StaticPagesController -->
<g id="edge5" class="edge"><title>ApplicationController&#45;&gt;StaticPagesController</title>
<path fill="none" stroke="black" d="M-40.8574,-40.1335C-62.7805,-66.8813 -90.7354,-100.988 -114.941,-130.52"/>
</g>
<!-- UsersController -->
<g id="node8" class="node"><title>UsersController</title>
<path fill="none" stroke="black" d="M-177.341,314.91C-177.341,314.91 -95.9131,314.91 -95.9131,314.91 -89.9131,314.91 -83.9131,308.91 -83.9131,302.91 -83.9131,302.91 -83.9131,96.9102 -83.9131,96.9102 -83.9131,90.9102 -89.9131,84.9102 -95.9131,84.9102 -95.9131,84.9102 -177.341,84.9102 -177.341,84.9102 -183.341,84.9102 -189.341,90.9102 -189.341,96.9102 -189.341,96.9102 -189.341,302.91 -189.341,302.91 -189.341,308.91 -183.341,314.91 -177.341,314.91"/>
<text text-anchor="middle" x="-136.627" y="100.11" font-family="Times,serif" font-size="14.00">UsersController</text>
<polyline fill="none" stroke="black" points="-189.341,106.91 -83.9131,106.91 "/>
<text text-anchor="start" x="-181.341" y="122.11" font-family="Times,serif" font-size="14.00">create</text>
<text text-anchor="start" x="-181.341" y="136.11" font-family="Times,serif" font-size="14.00">destroy</text>
<text text-anchor="start" x="-181.341" y="150.11" font-family="Times,serif" font-size="14.00">edit</text>
<text text-anchor="start" x="-181.341" y="164.11" font-family="Times,serif" font-size="14.00">index</text>
<text text-anchor="start" x="-181.341" y="178.11" font-family="Times,serif" font-size="14.00">new</text>
<text text-anchor="start" x="-181.341" y="192.11" font-family="Times,serif" font-size="14.00">show</text>
<text text-anchor="start" x="-181.341" y="206.11" font-family="Times,serif" font-size="14.00">update</text>
<polyline fill="none" stroke="black" points="-189.341,212.91 -83.9131,212.91 "/>
<polyline fill="none" stroke="black" points="-189.341,236.91 -83.9131,236.91 "/>
<text text-anchor="start" x="-181.341" y="252.11" font-family="Times,serif" font-size="14.00">_layout</text>
<text text-anchor="start" x="-181.341" y="266.11" font-family="Times,serif" font-size="14.00">admin_user</text>
<text text-anchor="start" x="-181.341" y="280.11" font-family="Times,serif" font-size="14.00">correct_user</text>
<text text-anchor="start" x="-181.341" y="294.11" font-family="Times,serif" font-size="14.00">logged_in_user</text>
<text text-anchor="start" x="-181.341" y="308.11" font-family="Times,serif" font-size="14.00">user_params</text>
</g>
<!-- ApplicationController&#45;&gt;UsersController -->
<g id="edge6" class="edge"><title>ApplicationController&#45;&gt;UsersController</title>
<path fill="none" stroke="black" d="M-34.9798,52.5215C-49.5767,73.687 -67.2479,99.3103 -83.7347,123.216"/>
</g>
<!-- VendorsController -->
<g id="node9" class="node"><title>VendorsController</title>
<path fill="none" stroke="black" d="M121.025,94.1435C121.025,94.1435 216.453,94.1435 216.453,94.1435 222.453,94.1435 228.453,88.1435 228.453,82.1435 228.453,82.1435 228.453,-25.8565 228.453,-25.8565 228.453,-31.8565 222.453,-37.8565 216.453,-37.8565 216.453,-37.8565 121.025,-37.8565 121.025,-37.8565 115.025,-37.8565 109.025,-31.8565 109.025,-25.8565 109.025,-25.8565 109.025,82.1435 109.025,82.1435 109.025,88.1435 115.025,94.1435 121.025,94.1435"/>
<text text-anchor="middle" x="168.739" y="-22.6565" font-family="Times,serif" font-size="14.00">VendorsController</text>
<polyline fill="none" stroke="black" points="109.025,-15.8565 228.453,-15.8565 "/>
<text text-anchor="start" x="117.025" y="-0.656533" font-family="Times,serif" font-size="14.00">display</text>
<text text-anchor="start" x="117.025" y="13.3435" font-family="Times,serif" font-size="14.00">import</text>
<text text-anchor="start" x="117.025" y="27.3435" font-family="Times,serif" font-size="14.00">index</text>
<text text-anchor="start" x="117.025" y="41.3435" font-family="Times,serif" font-size="14.00">show</text>
<polyline fill="none" stroke="black" points="109.025,48.1435 228.453,48.1435 "/>
<polyline fill="none" stroke="black" points="109.025,72.1435 228.453,72.1435 "/>
<text text-anchor="start" x="117.025" y="87.3435" font-family="Times,serif" font-size="14.00">_layout</text>
</g>
<!-- ApplicationController&#45;&gt;VendorsController -->
<g id="edge7" class="edge"><title>ApplicationController&#45;&gt;VendorsController</title>
<path fill="none" stroke="black" d="M66.8741,15.0652C80.8009,16.8533 95.3107,18.7161 108.866,20.4565"/>
</g>
</g>
</svg>
