<?xml version="1.0" encoding="UTF-8" standalone="no"?>
<!DOCTYPE svg PUBLIC "-//W3C//DTD SVG 1.1//EN"
 "http://www.w3.org/Graphics/SVG/1.1/DTD/svg11.dtd">
<!-- Generated by graphviz version 2.38.0 (20140413.2041)
 -->
<!-- Title: models_diagram Pages: 1 -->
<svg width="480pt" height="456pt"
 viewBox="0.00 0.00 479.71 456.00" xmlns="http://www.w3.org/2000/svg" xmlns:xlink="http://www.w3.org/1999/xlink">
<g id="graph0" class="graph" transform="scale(1 1) rotate(0) translate(4 452)">
<title>models_diagram</title>
<polygon fill="white" stroke="none" points="-4,4 -4,-452 475.71,-452 475.71,4 -4,4"/>
<!-- _diagram_info -->
<g id="node1" class="node"><title>_diagram_info</title>
<text text-anchor="start" x="8" y="-433.6" font-family="Times,serif" font-size="13.00">Models diagram</text>
<text text-anchor="start" x="8" y="-420.6" font-family="Times,serif" font-size="13.00">Date: Mar 17 2015 &#45; 21:21</text>
<text text-anchor="start" x="8" y="-407.6" font-family="Times,serif" font-size="13.00">Migration version: 20150313080547</text>
<text text-anchor="start" x="8" y="-394.6" font-family="Times,serif" font-size="13.00">Generated by RailRoady 1.3.0</text>
<text text-anchor="start" x="8" y="-381.6" font-family="Times,serif" font-size="13.00">http://railroady.prestonlee.com</text>
</g>
<!-- User -->
<g id="node2" class="node"><title>User</title>
<path fill="none" stroke="black" d="M121.41,-0.5C121.41,-0.5 301.966,-0.5 301.966,-0.5 307.966,-0.5 313.966,-6.5 313.966,-12.5 313.966,-12.5 313.966,-326.5 313.966,-326.5 313.966,-332.5 307.966,-338.5 301.966,-338.5 301.966,-338.5 121.41,-338.5 121.41,-338.5 115.41,-338.5 109.41,-332.5 109.41,-326.5 109.41,-326.5 109.41,-12.5 109.41,-12.5 109.41,-6.5 115.41,-0.5 121.41,-0.5"/>
<text text-anchor="middle" x="211.688" y="-323.3" font-family="Times,serif" font-size="14.00">User</text>
<polyline fill="none" stroke="black" points="109.41,-316.5 313.966,-316.5 "/>
<text text-anchor="start" x="117.41" y="-301.3" font-family="Times,serif" font-size="14.00">id :integer</text>
<text text-anchor="start" x="117.41" y="-287.3" font-family="Times,serif" font-size="14.00">name :string</text>
<text text-anchor="start" x="117.41" y="-273.3" font-family="Times,serif" font-size="14.00">email :string</text>
<text text-anchor="start" x="117.41" y="-259.3" font-family="Times,serif" font-size="14.00">created_at :datetime</text>
<text text-anchor="start" x="117.41" y="-245.3" font-family="Times,serif" font-size="14.00">updated_at :datetime</text>
<text text-anchor="start" x="117.41" y="-231.3" font-family="Times,serif" font-size="14.00">password_digest :string</text>
<text text-anchor="start" x="117.41" y="-217.3" font-family="Times,serif" font-size="14.00">encrypted_password :string</text>
<text text-anchor="start" x="117.41" y="-203.3" font-family="Times,serif" font-size="14.00">reset_password_token :string</text>
<text text-anchor="start" x="117.41" y="-189.3" font-family="Times,serif" font-size="14.00">reset_password_sent_at :datetime</text>
<text text-anchor="start" x="117.41" y="-175.3" font-family="Times,serif" font-size="14.00">remember_created_at :datetime</text>
<text text-anchor="start" x="117.41" y="-161.3" font-family="Times,serif" font-size="14.00">sign_in_count :integer</text>
<text text-anchor="start" x="117.41" y="-147.3" font-family="Times,serif" font-size="14.00">current_sign_in_at :datetime</text>
<text text-anchor="start" x="117.41" y="-133.3" font-family="Times,serif" font-size="14.00">last_sign_in_at :datetime</text>
<text text-anchor="start" x="117.41" y="-119.3" font-family="Times,serif" font-size="14.00">current_sign_in_ip :string</text>
<text text-anchor="start" x="117.41" y="-105.3" font-family="Times,serif" font-size="14.00">last_sign_in_ip :string</text>
<text text-anchor="start" x="117.41" y="-91.3" font-family="Times,serif" font-size="14.00">remember_digest :string</text>
<text text-anchor="start" x="117.41" y="-77.3" font-family="Times,serif" font-size="14.00">admin :boolean</text>
<text text-anchor="start" x="117.41" y="-63.3" font-family="Times,serif" font-size="14.00">activation_digest :string</text>
<text text-anchor="start" x="117.41" y="-49.3" font-family="Times,serif" font-size="14.00">activated :boolean</text>
<text text-anchor="start" x="117.41" y="-35.3" font-family="Times,serif" font-size="14.00">activated_at :datetime</text>
<text text-anchor="start" x="117.41" y="-21.3" font-family="Times,serif" font-size="14.00">reset_digest :string</text>
<text text-anchor="start" x="117.41" y="-7.3" font-family="Times,serif" font-size="14.00">reset_sent_at :datetime</text>
</g>
<!-- Vendor -->
<g id="node3" class="node"><title>Vendor</title>
<path fill="none" stroke="black" d="M343.665,-77.5C343.665,-77.5 459.71,-77.5 459.71,-77.5 465.71,-77.5 471.71,-83.5 471.71,-89.5 471.71,-89.5 471.71,-249.5 471.71,-249.5 471.71,-255.5 465.71,-261.5 459.71,-261.5 459.71,-261.5 343.665,-261.5 343.665,-261.5 337.665,-261.5 331.665,-255.5 331.665,-249.5 331.665,-249.5 331.665,-89.5 331.665,-89.5 331.665,-83.5 337.665,-77.5 343.665,-77.5"/>
<text text-anchor="middle" x="401.688" y="-246.3" font-family="Times,serif" font-size="14.00">Vendor</text>
<polyline fill="none" stroke="black" points="331.665,-239.5 471.71,-239.5 "/>
<text text-anchor="start" x="339.665" y="-224.3" font-family="Times,serif" font-size="14.00">id :integer</text>
<text text-anchor="start" x="339.665" y="-210.3" font-family="Times,serif" font-size="14.00">key :string</text>
<text text-anchor="start" x="339.665" y="-196.3" font-family="Times,serif" font-size="14.00">vendor_type :string</text>
<text text-anchor="start" x="339.665" y="-182.3" font-family="Times,serif" font-size="14.00">status :string</text>
<text text-anchor="start" x="339.665" y="-168.3" font-family="Times,serif" font-size="14.00">business_name :string</text>
<text text-anchor="start" x="339.665" y="-154.3" font-family="Times,serif" font-size="14.00">location :string</text>
<text text-anchor="start" x="339.665" y="-140.3" font-family="Times,serif" font-size="14.00">description :string</text>
<text text-anchor="start" x="339.665" y="-126.3" font-family="Times,serif" font-size="14.00">lat :float</text>
<text text-anchor="start" x="339.665" y="-112.3" font-family="Times,serif" font-size="14.00">lon :float</text>
<text text-anchor="start" x="339.665" y="-98.3" font-family="Times,serif" font-size="14.00">created_at :datetime</text>
<text text-anchor="start" x="339.665" y="-84.3" font-family="Times,serif" font-size="14.00">updated_at :datetime</text>
</g>
<!-- ActiveRecord::Base -->
<g id="node4" class="node"><title>ActiveRecord::Base</title>
<ellipse fill="none" stroke="black" cx="306.688" cy="-411.5" rx="81.1422" ry="18"/>
<text text-anchor="middle" x="306.688" y="-407.3" font-family="Times,serif" font-size="14.00">ActiveRecord::Base</text>
</g>
<!-- ActiveRecord::Base&#45;&gt;User -->
<g id="edge1" class="edge"><title>ActiveRecord::Base&#45;&gt;User</title>
<path fill="none" stroke="black" d="M299.856,-393.24C294.665,-380.127 286.942,-360.617 278.189,-338.502"/>
</g>
<!-- ActiveRecord::Base&#45;&gt;Vendor -->
<g id="edge2" class="edge"><title>ActiveRecord::Base&#45;&gt;Vendor</title>
<path fill="none" stroke="black" d="M313.52,-393.24C324.39,-365.779 346.367,-310.257 365.659,-261.52"/>
</g>
</g>
</svg>
