<?xml version="1.0" encoding="UTF-8" standalone="no"?>
<!DOCTYPE svg PUBLIC "-//W3C//DTD SVG 1.1//EN"
 "http://www.w3.org/Graphics/SVG/1.1/DTD/svg11.dtd">
<!-- Generated by graphviz version 2.38.0 (20140413.2041)
 -->
<!-- Title: models_diagram Pages: 1 -->
<svg width="431pt" height="225pt"
 viewBox="0.00 0.00 431.34 225.00" xmlns="http://www.w3.org/2000/svg" xmlns:xlink="http://www.w3.org/1999/xlink">
<g id="graph0" class="graph" transform="scale(1 1) rotate(0) translate(4 221)">
<title>models_diagram</title>
<polygon fill="white" stroke="none" points="-4,4 -4,-221 427.336,-221 427.336,4 -4,4"/>
<!-- _diagram_info -->
<g id="node1" class="node"><title>_diagram_info</title>
<text text-anchor="start" x="8" y="-202.6" font-family="Times,serif" font-size="13.00">Models diagram</text>
<text text-anchor="start" x="8" y="-189.6" font-family="Times,serif" font-size="13.00">Date: Mar 18 2015 &#45; 16:07</text>
<text text-anchor="start" x="8" y="-176.6" font-family="Times,serif" font-size="13.00">Migration version: 20150313080547</text>
<text text-anchor="start" x="8" y="-163.6" font-family="Times,serif" font-size="13.00">Generated by RailRoady 1.3.0</text>
<text text-anchor="start" x="8" y="-150.6" font-family="Times,serif" font-size="13.00">http://railroady.prestonlee.com</text>
</g>
<!-- Comment -->
<g id="node2" class="node"><title>Comment</title>
<ellipse fill="none" stroke="black" cx="278.688" cy="-18" rx="44.9768" ry="18"/>
<text text-anchor="middle" x="278.688" y="-13.8" font-family="Times,serif" font-size="14.00">Comment</text>
</g>
<!-- User -->
<g id="node3" class="node"><title>User</title>
<ellipse fill="none" stroke="black" cx="306.688" cy="-90" rx="27" ry="18"/>
<text text-anchor="middle" x="306.688" y="-85.8" font-family="Times,serif" font-size="14.00">User</text>
</g>
<!-- User&#45;&gt;Comment -->
<g id="edge2" class="edge"><title>User&#45;&gt;Comment</title>
<path fill="none" stroke="#0553ec" d="M296.999,-64.7779C294.505,-58.544 291.81,-51.8046 289.273,-45.4634"/>
<ellipse fill="none" stroke="#0553ec" cx="298.567" cy="-68.6971" rx="4.00001" ry="4.00001"/>
<polygon fill="#0553ec" stroke="#0553ec" points="289.184,-45.241 289.648,-34.2849 287.327,-40.5986 285.47,-35.9562 285.47,-35.9562 285.47,-35.9562 287.327,-40.5986 281.292,-37.6275 289.184,-45.241 289.184,-45.241"/>
</g>
<!-- Vendor -->
<g id="node4" class="node"><title>Vendor</title>
<ellipse fill="none" stroke="black" cx="387.688" cy="-90" rx="35.7974" ry="18"/>
<text text-anchor="middle" x="387.688" y="-85.8" font-family="Times,serif" font-size="14.00">Vendor</text>
</g>
<!-- ActiveRecord::Base -->
<g id="node5" class="node"><title>ActiveRecord::Base</title>
<ellipse fill="none" stroke="black" cx="306.688" cy="-180.5" rx="81.1422" ry="18"/>
<text text-anchor="middle" x="306.688" y="-176.3" font-family="Times,serif" font-size="14.00">ActiveRecord::Base</text>
</g>
<!-- ActiveRecord::Base&#45;&gt;Comment -->
<g id="edge1" class="edge"><title>ActiveRecord::Base&#45;&gt;Comment</title>
<path fill="none" stroke="black" d="M295.234,-162.462C286.579,-148.502 275.409,-127.877 270.688,-108 264.844,-83.3973 269.685,-54.043 273.974,-35.9622"/>
</g>
<!-- ActiveRecord::Base&#45;&gt;User -->
<g id="edge3" class="edge"><title>ActiveRecord::Base&#45;&gt;User</title>
<path fill="none" stroke="black" d="M306.688,-162.436C306.688,-146.765 306.688,-123.666 306.688,-108.011"/>
</g>
<!-- ActiveRecord::Base&#45;&gt;Vendor -->
<g id="edge4" class="edge"><title>ActiveRecord::Base&#45;&gt;Vendor</title>
<path fill="none" stroke="black" d="M322.305,-162.436C337.108,-146.263 359.152,-122.178 373.474,-106.529"/>
</g>
</g>
</svg>
