<?xml version="1.0" encoding="UTF-8" standalone="no"?>
<!DOCTYPE svg PUBLIC "-//W3C//DTD SVG 1.1//EN"
 "http://www.w3.org/Graphics/SVG/1.1/DTD/svg11.dtd">
<!-- Generated by graphviz version 2.38.0 (20140413.2041)
 -->
<!-- Title: models_diagram Pages: 1 -->
<svg width="480pt" height="528pt"
 viewBox="0.00 0.00 479.71 528.00" xmlns="http://www.w3.org/2000/svg" xmlns:xlink="http://www.w3.org/1999/xlink">
<g id="graph0" class="graph" transform="scale(1 1) rotate(0) translate(4 524)">
<title>models_diagram</title>
<polygon fill="white" stroke="none" points="-4,4 -4,-524 475.71,-524 475.71,4 -4,4"/>
<!-- _diagram_info -->
<g id="node1" class="node"><title>_diagram_info</title>
<text text-anchor="start" x="8" y="-505.6" font-family="Times,serif" font-size="13.00">Models diagram</text>
<text text-anchor="start" x="8" y="-492.6" font-family="Times,serif" font-size="13.00">Date: Mar 18 2015 &#45; 16:07</text>
<text text-anchor="start" x="8" y="-479.6" font-family="Times,serif" font-size="13.00">Migration version: 20150313080547</text>
<text text-anchor="start" x="8" y="-466.6" font-family="Times,serif" font-size="13.00">Generated by RailRoady 1.3.0</text>
<text text-anchor="start" x="8" y="-453.6" font-family="Times,serif" font-size="13.00">http://railroady.prestonlee.com</text>
</g>
<!-- User -->
<g id="node2" class="node"><title>User</title>
<path fill="none" stroke="black" d="M121.41,-72.5C121.41,-72.5 301.966,-72.5 301.966,-72.5 307.966,-72.5 313.966,-78.5 313.966,-84.5 313.966,-84.5 313.966,-398.5 313.966,-398.5 313.966,-404.5 307.966,-410.5 301.966,-410.5 301.966,-410.5 121.41,-410.5 121.41,-410.5 115.41,-410.5 109.41,-404.5 109.41,-398.5 109.41,-398.5 109.41,-84.5 109.41,-84.5 109.41,-78.5 115.41,-72.5 121.41,-72.5"/>
<text text-anchor="middle" x="211.688" y="-395.3" font-family="Times,serif" font-size="14.00">User</text>
<polyline fill="none" stroke="black" points="109.41,-388.5 313.966,-388.5 "/>
<text text-anchor="start" x="117.41" y="-373.3" font-family="Times,serif" font-size="14.00">id :integer</text>
<text text-anchor="start" x="117.41" y="-359.3" font-family="Times,serif" font-size="14.00">name :string</text>
<text text-anchor="start" x="117.41" y="-345.3" font-family="Times,serif" font-size="14.00">email :string</text>
<text text-anchor="start" x="117.41" y="-331.3" font-family="Times,serif" font-size="14.00">created_at :datetime</text>
<text text-anchor="start" x="117.41" y="-317.3" font-family="Times,serif" font-size="14.00">updated_at :datetime</text>
<text text-anchor="start" x="117.41" y="-303.3" font-family="Times,serif" font-size="14.00">password_digest :string</text>
<text text-anchor="start" x="117.41" y="-289.3" font-family="Times,serif" font-size="14.00">encrypted_password :string</text>
<text text-anchor="start" x="117.41" y="-275.3" font-family="Times,serif" font-size="14.00">reset_password_token :string</text>
<text text-anchor="start" x="117.41" y="-261.3" font-family="Times,serif" font-size="14.00">reset_password_sent_at :datetime</text>
<text text-anchor="start" x="117.41" y="-247.3" font-family="Times,serif" font-size="14.00">remember_created_at :datetime</text>
<text text-anchor="start" x="117.41" y="-233.3" font-family="Times,serif" font-size="14.00">sign_in_count :integer</text>
<text text-anchor="start" x="117.41" y="-219.3" font-family="Times,serif" font-size="14.00">current_sign_in_at :datetime</text>
<text text-anchor="start" x="117.41" y="-205.3" font-family="Times,serif" font-size="14.00">last_sign_in_at :datetime</text>
<text text-anchor="start" x="117.41" y="-191.3" font-family="Times,serif" font-size="14.00">current_sign_in_ip :string</text>
<text text-anchor="start" x="117.41" y="-177.3" font-family="Times,serif" font-size="14.00">last_sign_in_ip :string</text>
<text text-anchor="start" x="117.41" y="-163.3" font-family="Times,serif" font-size="14.00">remember_digest :string</text>
<text text-anchor="start" x="117.41" y="-149.3" font-family="Times,serif" font-size="14.00">admin :boolean</text>
<text text-anchor="start" x="117.41" y="-135.3" font-family="Times,serif" font-size="14.00">activation_digest :string</text>
<text text-anchor="start" x="117.41" y="-121.3" font-family="Times,serif" font-size="14.00">activated :boolean</text>
<text text-anchor="start" x="117.41" y="-107.3" font-family="Times,serif" font-size="14.00">activated_at :datetime</text>
<text text-anchor="start" x="117.41" y="-93.3" font-family="Times,serif" font-size="14.00">reset_digest :string</text>
<text text-anchor="start" x="117.41" y="-79.3" font-family="Times,serif" font-size="14.00">reset_sent_at :datetime</text>
</g>
<!-- Comment -->
<g id="node4" class="node"><title>Comment</title>
<ellipse fill="none" stroke="black" cx="211.688" cy="-18" rx="44.9768" ry="18"/>
<text text-anchor="middle" x="211.688" y="-13.8" font-family="Times,serif" font-size="14.00">Comment</text>
</g>
<!-- User&#45;&gt;Comment -->
<g id="edge1" class="edge"><title>User&#45;&gt;Comment</title>
<path fill="none" stroke="#21d5aa" d="M211.688,-64.2409C211.688,-57.8184 211.688,-51.8548 211.688,-46.5041"/>
<ellipse fill="none" stroke="#21d5aa" cx="211.688" cy="-68.3366" rx="4" ry="4"/>
<polygon fill="#21d5aa" stroke="#21d5aa" points="211.688,-46.4313 216.188,-36.4312 211.688,-41.4313 211.688,-36.4313 211.688,-36.4313 211.688,-36.4313 211.688,-41.4313 207.188,-36.4313 211.688,-46.4313 211.688,-46.4313"/>
</g>
<!-- Vendor -->
<g id="node3" class="node"><title>Vendor</title>
<path fill="none" stroke="black" d="M343.665,-149.5C343.665,-149.5 459.71,-149.5 459.71,-149.5 465.71,-149.5 471.71,-155.5 471.71,-161.5 471.71,-161.5 471.71,-321.5 471.71,-321.5 471.71,-327.5 465.71,-333.5 459.71,-333.5 459.71,-333.5 343.665,-333.5 343.665,-333.5 337.665,-333.5 331.665,-327.5 331.665,-321.5 331.665,-321.5 331.665,-161.5 331.665,-161.5 331.665,-155.5 337.665,-149.5 343.665,-149.5"/>
<text text-anchor="middle" x="401.688" y="-318.3" font-family="Times,serif" font-size="14.00">Vendor</text>
<polyline fill="none" stroke="black" points="331.665,-311.5 471.71,-311.5 "/>
<text text-anchor="start" x="339.665" y="-296.3" font-family="Times,serif" font-size="14.00">id :integer</text>
<text text-anchor="start" x="339.665" y="-282.3" font-family="Times,serif" font-size="14.00">key :string</text>
<text text-anchor="start" x="339.665" y="-268.3" font-family="Times,serif" font-size="14.00">vendor_type :string</text>
<text text-anchor="start" x="339.665" y="-254.3" font-family="Times,serif" font-size="14.00">status :string</text>
<text text-anchor="start" x="339.665" y="-240.3" font-family="Times,serif" font-size="14.00">business_name :string</text>
<text text-anchor="start" x="339.665" y="-226.3" font-family="Times,serif" font-size="14.00">location :string</text>
<text text-anchor="start" x="339.665" y="-212.3" font-family="Times,serif" font-size="14.00">description :string</text>
<text text-anchor="start" x="339.665" y="-198.3" font-family="Times,serif" font-size="14.00">lat :float</text>
<text text-anchor="start" x="339.665" y="-184.3" font-family="Times,serif" font-size="14.00">lon :float</text>
<text text-anchor="start" x="339.665" y="-170.3" font-family="Times,serif" font-size="14.00">created_at :datetime</text>
<text text-anchor="start" x="339.665" y="-156.3" font-family="Times,serif" font-size="14.00">updated_at :datetime</text>
</g>
<!-- ActiveRecord::Base -->
<g id="node5" class="node"><title>ActiveRecord::Base</title>
<ellipse fill="none" stroke="black" cx="306.688" cy="-483.5" rx="81.1422" ry="18"/>
<text text-anchor="middle" x="306.688" y="-479.3" font-family="Times,serif" font-size="14.00">ActiveRecord::Base</text>
</g>
<!-- ActiveRecord::Base&#45;&gt;User -->
<g id="edge2" class="edge"><title>ActiveRecord::Base&#45;&gt;User</title>
<path fill="none" stroke="black" d="M299.856,-465.24C294.665,-452.127 286.942,-432.617 278.189,-410.502"/>
</g>
<!-- ActiveRecord::Base&#45;&gt;Vendor -->
<g id="edge3" class="edge"><title>ActiveRecord::Base&#45;&gt;Vendor</title>
<path fill="none" stroke="black" d="M313.52,-465.24C324.39,-437.779 346.367,-382.257 365.659,-333.52"/>
</g>
</g>
</svg>
